<svg xmlns="http://www.w3.org/2000/svg" viewBox="0 0 512 512">
  <defs>
    <linearGradient id="bg" x1="0" y1="0" x2="1" y2="1">
      <stop offset="0%" stop-color="#1e40af"/>
      <stop offset="100%" stop-color="#0b1224"/>
    </linearGradient>
    <radialGradient id="globe" cx="35%" cy="32%">
      <stop offset="0%" stop-color="#60a5fa"/>
      <stop offset="60%" stop-color="#2563eb"/>
      <stop offset="100%" stop-color="#1e3a8a"/>
    </radialGradient>
    <radialGradient id="pinShine" cx="35%" cy="30%">
      <stop offset="0%" stop-color="#fca5a5"/>
      <stop offset="55%" stop-color="#ef4444"/>
      <stop offset="100%" stop-color="#b91c1c"/>
    </radialGradient>
  </defs>

  <rect width="512" height="512" rx="96" fill="url(#bg)"/>

  <g transform="translate(256, 296)">
    <circle r="142" fill="url(#globe)"/>
    <ellipse rx="142" ry="38" fill="none" stroke="#bfdbfe" stroke-width="2.5" opacity="0.55"/>
    <ellipse rx="142" ry="88" fill="none" stroke="#bfdbfe" stroke-width="2.5" opacity="0.45"/>
    <ellipse rx="142" ry="125" fill="none" stroke="#bfdbfe" stroke-width="2.5" opacity="0.35"/>
    <line x1="0" y1="-142" x2="0" y2="142" stroke="#bfdbfe" stroke-width="2.5" opacity="0.55"/>
    <ellipse rx="52" ry="142" fill="none" stroke="#bfdbfe" stroke-width="2.5" opacity="0.45"/>
    <ellipse rx="100" ry="142" fill="none" stroke="#bfdbfe" stroke-width="2.5" opacity="0.35"/>
    <circle r="142" fill="none" stroke="#dbeafe" stroke-width="4"/>
  </g>

  <g transform="translate(256, 92)">
    <path d="M0,0 C-30,0 -54,24 -54,54 C-54,98 0,160 0,160 C0,160 54,98 54,54 C54,24 30,0 0,0 Z"
          fill="url(#pinShine)" stroke="#fef2f2" stroke-width="6"/>
    <circle cx="0" cy="54" r="18" fill="#fef2f2"/>
  </g>
</svg>
